# xmcd CD database file
#
# Track frame offsets:
#	150
#	147702
#	189073
#	262259
#	285748
#	297529
#
# Disc length: 4366 seconds
#
# Revision: 0
# Processed by: cddbd v1.5PL3 Copyright (c) Steve Scherf et al.
# Submitted via: CDex 1.51
#
DISCID=67110c06
DTITLE=Fazz The Jazz - Fazz The Jazz
DYEAR=1900
DGENRE=Jazz
TTITLE0=Pharaoh Sanders/ The Creator Has a Masterplan
TTITLE1=Charlie Parker/ Don't Blame Me
TTITLE2=Pharaoh Sanders/ Upper Egypt and Lower Egypt
TTITLE3=Dizzy Gillespie/ Cool Breeze
TTITLE4=Jimmy Rushing/ Its A Sin To Tell A Lie
TTITLE5=Dizzy Gilespie/ Take The A Train
EXTD=
EXTT0=
EXTT1=
EXTT2=
EXTT3=
EXTT4=
EXTT5=
PLAYORDER=
